<svg xmlns="http://www.w3.org/2000/svg" width="512" height="512" viewBox="0 0 100 100" fill="none">
  <rect width="100" height="100" rx="24" fill="#1A1A1A" />
  <path d="M 24 38 C 24 28, 38 28, 55 28 H 76 C 76 28, 78 32, 70 36 C 60 40, 44 42, 36 46 C 30 50, 24 45, 24 38 Z" fill="#C23B22" />
  <path d="M 24 50 C 24 42, 34 38, 56 38 C 66 38, 76 44, 76 50 C 76 56, 66 62, 44 62 C 34 62, 24 58, 24 50 Z" fill="#F5F2EB" />
  <path d="M 76 62 C 76 72, 62 72, 45 72 H 24 C 24 72, 22 68, 30 64 C 40 60, 56 58, 64 54 C 70 50, 76 55, 76 62 Z" fill="#F2C12E" />
</svg>
